<svg width="40" height="40" viewBox="0 0 40 40" fill="none" xmlns="http://www.w3.org/2000/svg">
<path d="M14.1404 34C14.1404 35.9299 15.7175 37.5 17.656 37.5C19.5945 37.5 21.1715 35.9299 21.1715 34C21.1715 32.0701 19.5945 30.5 17.656 30.5C15.7175 30.5 14.1404 32.0701 14.1404 34ZM17.656 32.8333C18.3021 32.8333 18.8278 33.3567 18.8278 34C18.8278 34.6433 18.3021 35.1667 17.656 35.1667C17.0098 35.1667 16.4841 34.6433 16.4841 34C16.4841 33.3567 17.0098 32.8333 17.656 32.8333Z" fill="white"/>
<path d="M25.9371 34C25.9371 35.9299 27.5142 37.5 29.4527 37.5C31.3912 37.5 32.9682 35.9299 32.9682 34C32.9682 32.0701 31.3912 30.5 29.4527 30.5C27.5142 30.5 25.9371 32.0701 25.9371 34ZM29.4527 32.8333C30.0988 32.8333 30.6245 33.3567 30.6245 34C30.6245 34.6433 30.0988 35.1667 29.4527 35.1667C28.8065 35.1667 28.2808 34.6433 28.2808 34C28.2808 33.3567 28.8065 32.8333 29.4527 32.8333Z" fill="white"/>
<path d="M38.8275 7.16667H9.16525C8.764 5.7683 8.3901 4.46537 8.06894 3.34622C7.92527 2.84533 7.46535 2.5 6.94216 2.5H1.17186C0.524679 2.5 0 3.02236 0 3.66667C0 4.31098 0.524679 4.83333 1.17186 4.83333H6.05819C7.36864 9.40013 10.4322 20.0754 11.7165 24.5508L11.2726 25.4347C10.1027 27.7644 11.8065 30.5 14.417 30.5H34.1401C34.7873 30.5 35.312 29.9776 35.312 29.3333C35.312 28.689 34.7873 28.1667 34.1401 28.1667H14.417C13.5455 28.1667 12.9795 27.2537 13.3689 26.4783L13.6928 25.8333H34.1401C34.6633 25.8333 35.1231 25.4881 35.2669 24.9872L39.9543 8.65386C40.1678 7.90991 39.6064 7.16667 38.8275 7.16667ZM33.2562 23.5H13.8525C13.214 21.275 11.427 15.0483 9.83485 9.5H37.274L33.2562 23.5Z" fill="white"/>
</svg>
