<svg width="40" height="40" viewBox="0 0 40 40" fill="none" xmlns="http://www.w3.org/2000/svg">
<path d="M20 3.90039C24.3002 3.90039 28.344 5.57451 31.3848 8.61523C34.4255 11.656 36.0996 15.6998 36.0996 20C36.0996 24.3002 34.4255 28.344 31.3848 31.3848C28.344 34.4255 24.3002 36.0996 20 36.0996C15.6998 36.0996 11.656 34.4255 8.61523 31.3848C5.57451 28.344 3.90039 24.3002 3.90039 20C3.90039 15.6998 5.57451 11.656 8.61523 8.61523C11.656 5.57451 15.6998 3.90039 20 3.90039ZM20 22.875C15.4503 22.875 11.5971 26.3189 11.0498 30.7881C13.4803 32.8081 16.6002 34.0254 20 34.0254C23.3994 34.0254 26.5188 32.8077 28.9492 30.7881C28.7058 28.8019 27.8031 26.943 26.377 25.5166C24.6733 23.8132 22.4085 22.875 20 22.875ZM20 5.97461C12.2667 5.97461 5.97461 12.2667 5.97461 20C5.97461 23.438 7.22033 26.5892 9.28125 29.0312C9.81304 27.0317 10.8978 25.2111 12.4404 23.7744C13.493 22.7938 14.7106 22.0411 16.0244 21.5371C14.2956 20.2959 13.165 18.2708 13.165 15.9844C13.1652 12.2159 16.2315 9.15039 20 9.15039C23.7685 9.15039 26.8348 12.2159 26.835 15.9844C26.835 18.269 25.7051 20.2918 23.9785 21.5332C25.4115 22.083 26.7262 22.9322 27.8438 24.0498C29.2329 25.4389 30.2175 27.1623 30.7168 29.0332C32.7788 26.591 34.0254 23.439 34.0254 20C34.0254 12.2667 27.7333 5.97461 20 5.97461ZM20 11.2246C17.3759 11.2246 15.2404 13.36 15.2402 15.9844C15.2402 18.6086 17.3758 20.7441 20 20.7441C22.6242 20.7441 24.7598 18.6086 24.7598 15.9844C24.7596 13.36 22.6241 11.2246 20 11.2246Z" fill="white" stroke="white" stroke-width="0.2"/>
</svg>
