<svg width="32" height="29" viewBox="0 0 32 29" fill="none" xmlns="http://www.w3.org/2000/svg">
<path d="M10.24 9.66667L8 11.9222L16 19.9778L32 3.86667L29.76 1.61111L16 15.4667L10.24 9.66667Z" fill="#00D5AF"/>
<path d="M14.4 25.7778C8.16 25.7778 3.2 20.7833 3.2 14.5C3.2 8.21667 8.16 3.22222 14.4 3.22222C16.32 3.22222 18.24 3.70556 20 4.67222L21.6 1.93333C19.36 0.644444 16.96 0 14.4 0C6.4 0 0 6.44444 0 14.5C0 22.5556 6.4 29 14.4 29C22.4 29 28.8 22.5556 28.8 14.5H25.6C25.6 20.7833 20.64 25.7778 14.4 25.7778Z" fill="#00D5AF"/>
</svg>
