<svg width="24" height="24" viewBox="0 0 24 24" fill="none" xmlns="http://www.w3.org/2000/svg">
<path d="M20.25 3H3.75C1.68244 3 0 4.68244 0 6.75V17.25C0 19.3176 1.68244 21 3.75 21H20.25C22.3176 21 24 19.3176 24 17.25V6.75C24 4.68244 22.3176 3 20.25 3ZM22.5 17.25C22.5 18.4907 21.4907 19.5 20.25 19.5H3.75C2.50931 19.5 1.5 18.4907 1.5 17.25V6.75C1.5 5.50931 2.50931 4.5 3.75 4.5H20.25C21.4907 4.5 22.5 5.50931 22.5 6.75V17.25ZM20.7803 7.28025L16.0605 12L20.7803 16.7197C21.0733 17.0128 21.0733 17.4874 20.7803 17.7803C20.6338 17.9267 20.4418 18 20.25 18C20.0582 18 19.8662 17.9267 19.7197 17.7803L15 13.0605L12.5303 15.5303C12.3838 15.6767 12.1918 15.75 12 15.75C11.8082 15.75 11.6162 15.6767 11.4698 15.5303L9 13.0605L4.28025 17.7803C4.13381 17.9267 3.94181 18 3.75 18C3.55819 18 3.36619 17.9267 3.21975 17.7803C2.92669 17.4872 2.92669 17.0126 3.21975 16.7197L7.9395 12L3.21975 7.28025C2.92669 6.98719 2.92669 6.51263 3.21975 6.21975C3.51281 5.92688 3.98737 5.92669 4.28025 6.21975L12 13.9395L19.7197 6.21975C20.0128 5.92669 20.4874 5.92669 20.7803 6.21975C21.0731 6.51281 21.0733 6.98737 20.7803 7.28025Z" fill="#00D5AF"/>
</svg>
